<mxfile host="app.diagrams.net" modified="2023-09-05T01:33:18.861Z" agent="Mozilla/5.0 (X11; Ubuntu; Linux x86_64; rv:109.0) Gecko/20100101 Firefox/115.0" version="21.7.2" etag="qWvE2HIwfhFa1MF8XHnY" type="github">
  <diagram name="Page-1" id="B_mG4ZcJqUr2SkuaIUEd">
    <mxGraphModel>
      <root>
        <mxCell id="0" />
        <mxCell id="1" parent="0" />
      </root>
    </mxGraphModel>
  </diagram>
</mxfile>
